<svg width="56" height="56" viewBox="0 0 56 56" fill="none" xmlns="http://www.w3.org/2000/svg">
<path fill-rule="evenodd" clip-rule="evenodd" d="M25.591 31.2068C29.28 31.2068 32.433 31.7658 32.433 33.9988C32.433 36.2318 29.301 36.8068 25.591 36.8068C21.901 36.8068 18.749 36.2528 18.749 34.0188C18.749 31.7848 21.88 31.2068 25.591 31.2068Z" stroke="#53545C" stroke-width="1.5" stroke-linecap="round" stroke-linejoin="round"/>
<path fill-rule="evenodd" clip-rule="evenodd" d="M25.5911 28.0198C23.1691 28.0198 21.2051 26.0568 21.2051 23.6348C21.2051 21.2128 23.1691 19.2498 25.5911 19.2498C28.0121 19.2498 29.9761 21.2128 29.9761 23.6348C29.9851 26.0478 28.0351 28.0108 25.6221 28.0198H25.5911Z" stroke="#53545C" stroke-width="1.5" stroke-linecap="round" stroke-linejoin="round"/>
<path d="M32.4824 26.8815C34.0834 26.6565 35.3164 25.2825 35.3194 23.6195C35.3194 21.9805 34.1244 20.6205 32.5574 20.3635" stroke="#53545C" stroke-width="1.5" stroke-linecap="round" stroke-linejoin="round"/>
<path d="M34.5947 30.7322C36.1457 30.9632 37.2287 31.5072 37.2287 32.6272C37.2287 33.3982 36.7187 33.8982 35.8947 34.2112" stroke="#53545C" stroke-width="1.5" stroke-linecap="round" stroke-linejoin="round"/>
</svg>
