<svg width="56" height="56" viewBox="0 0 56 56" fill="none" xmlns="http://www.w3.org/2000/svg">
<rect width="56" height="56" fill="#1E1E1E"/>
<g clip-path="url(#clip0_2_380)">
<rect width="1440" height="1024" transform="translate(-16 -196)" fill="#F4F5FA"/>
<rect width="88" height="1024" transform="translate(-16 -196)" fill="white"/>
<rect width="56" height="56" rx="12" fill="#5570F1"/>
<path fill-rule="evenodd" clip-rule="evenodd" d="M36.9133 32.3147L36.1444 26.1201C35.676 23.9096 34.3503 23 33.0865 23H22.9317C21.6502 23 20.2803 23.846 19.8826 26.1201L19.1049 32.3147C18.4686 36.8629 20.8106 38 23.8685 38H32.1585C35.2075 38 37.4789 36.3535 36.9133 32.3147ZM25.097 28.1486C24.6089 28.1486 24.2132 27.7413 24.2132 27.2389C24.2132 26.7366 24.6089 26.3293 25.097 26.3293C25.5851 26.3293 25.9808 26.7366 25.9808 27.2389C25.9808 27.7413 25.5851 28.1486 25.097 28.1486ZM30.002 27.2389C30.002 27.7413 30.3977 28.1486 30.8858 28.1486C31.3739 28.1486 31.7696 27.7413 31.7696 27.2389C31.7696 26.7366 31.3739 26.3293 30.8858 26.3293C30.3977 26.3293 30.002 26.7366 30.002 27.2389Z" fill="white"/>
<path opacity="0.4" d="M32.9739 22.7743C32.977 22.8519 32.9621 22.9291 32.9303 23H31.4932C31.4654 22.9279 31.4506 22.8515 31.4497 22.7743C31.4497 20.8568 29.8899 19.3024 27.9657 19.3024C26.0416 19.3024 24.4818 20.8568 24.4818 22.7743C24.495 22.849 24.495 22.9253 24.4818 23H23.0099C22.9967 22.9253 22.9967 22.849 23.0099 22.7743C23.1217 20.1059 25.325 18 28.0049 18C30.6849 18 32.8882 20.1059 33 22.7743H32.9739Z" fill="white"/>
</g>
<defs>
<clipPath id="clip0_2_380">
<rect width="1440" height="1024" fill="white" transform="translate(-16 -196)"/>
</clipPath>
</defs>
</svg>
